<svg width="921" height="229" viewBox="0 0 921 229" fill="none" xmlns="http://www.w3.org/2000/svg">
<path d="M2.534 7.756C3.05667 7.644 3.53733 7.588 3.976 7.588C4.49867 7.588 4.96067 7.665 5.362 7.819C5.76333 7.973 6.097 8.18533 6.363 8.456C6.63367 8.72667 6.83667 9.04633 6.972 9.415C7.112 9.78367 7.182 10.185 7.182 10.619C7.182 11.151 7.08867 11.6317 6.902 12.061C6.72 12.4903 6.46567 12.859 6.139 13.167C5.817 13.4703 5.43667 13.7037 4.998 13.867C4.55933 14.0303 4.08567 14.112 3.577 14.112C3.283 14.112 3.00067 14.0817 2.73 14.021C2.45933 13.965 2.205 13.888 1.967 13.79C1.73367 13.692 1.51667 13.58 1.316 13.454C1.11533 13.328 0.938 13.195 0.784 13.055L1.169 12.523C1.253 12.4017 1.36267 12.341 1.498 12.341C1.59133 12.341 1.69633 12.3783 1.813 12.453C1.92967 12.523 2.072 12.6023 2.24 12.691C2.408 12.7797 2.604 12.8613 2.828 12.936C3.05667 13.006 3.32733 13.041 3.64 13.041C3.99 13.041 4.305 12.985 4.585 12.873C4.865 12.761 5.10533 12.6023 5.306 12.397C5.50667 12.187 5.66067 11.9373 5.768 11.648C5.87533 11.3587 5.929 11.0343 5.929 10.675C5.929 10.3623 5.88233 10.08 5.789 9.828C5.70033 9.576 5.56267 9.36133 5.376 9.184C5.194 9.00667 4.96533 8.869 4.69 8.771C4.41467 8.673 4.09267 8.624 3.724 8.624C3.472 8.624 3.20833 8.645 2.933 8.687C2.66233 8.729 2.38467 8.79667 2.1 8.89L1.316 8.659L2.121 3.969H6.874V4.515C6.874 4.69233 6.818 4.83933 6.706 4.956C6.59867 5.068 6.412 5.124 6.146 5.124H2.996L2.534 7.756ZM15.8211 8.988C15.8211 9.86533 15.7254 10.626 15.5341 11.27C15.3474 11.9093 15.0908 12.439 14.7641 12.859C14.4374 13.279 14.0501 13.5917 13.6021 13.797C13.1588 14.0023 12.6828 14.105 12.1741 14.105C11.6608 14.105 11.1824 14.0023 10.7391 13.797C10.3004 13.5917 9.91776 13.279 9.59109 12.859C9.26443 12.439 9.00776 11.9093 8.82109 11.27C8.63443 10.626 8.54109 9.86533 8.54109 8.988C8.54109 8.11067 8.63443 7.35 8.82109 6.706C9.00776 6.062 9.26443 5.53 9.59109 5.11C9.91776 4.68533 10.3004 4.37033 10.7391 4.165C11.1824 3.95967 11.6608 3.857 12.1741 3.857C12.6828 3.857 13.1588 3.95967 13.6021 4.165C14.0501 4.37033 14.4374 4.68533 14.7641 5.11C15.0908 5.53 15.3474 6.062 15.5341 6.706C15.7254 7.35 15.8211 8.11067 15.8211 8.988ZM14.5261 8.988C14.5261 8.22267 14.4608 7.581 14.3301 7.063C14.2041 6.54033 14.0314 6.12033 13.8121 5.803C13.5974 5.48567 13.3478 5.25933 13.0631 5.124C12.7784 4.984 12.4821 4.914 12.1741 4.914C11.8661 4.914 11.5698 4.984 11.2851 5.124C11.0004 5.25933 10.7508 5.48567 10.5361 5.803C10.3214 6.12033 10.1488 6.54033 10.0181 7.063C9.89209 7.581 9.82909 8.22267 9.82909 8.988C9.82909 9.75333 9.89209 10.395 10.0181 10.913C10.1488 11.431 10.3214 11.8487 10.5361 12.166C10.7508 12.4833 11.0004 12.712 11.2851 12.852C11.5698 12.9873 11.8661 13.055 12.1741 13.055C12.4821 13.055 12.7784 12.9873 13.0631 12.852C13.3478 12.712 13.5974 12.4833 13.8121 12.166C14.0314 11.8487 14.2041 11.431 14.3301 10.913C14.4608 10.395 14.5261 9.75333 14.5261 8.988ZM23.9422 8.988C23.9422 9.86533 23.8465 10.626 23.6552 11.27C23.4685 11.9093 23.2119 12.439 22.8852 12.859C22.5585 13.279 22.1712 13.5917 21.7232 13.797C21.2799 14.0023 20.8039 14.105 20.2952 14.105C19.7819 14.105 19.3035 14.0023 18.8602 13.797C18.4215 13.5917 18.0389 13.279 17.7122 12.859C17.3855 12.439 17.1289 11.9093 16.9422 11.27C16.7555 10.626 16.6622 9.86533 16.6622 8.988C16.6622 8.11067 16.7555 7.35 16.9422 6.706C17.1289 6.062 17.3855 5.53 17.7122 5.11C18.0389 4.68533 18.4215 4.37033 18.8602 4.165C19.3035 3.95967 19.7819 3.857 20.2952 3.857C20.8039 3.857 21.2799 3.95967 21.7232 4.165C22.1712 4.37033 22.5585 4.68533 22.8852 5.11C23.2119 5.53 23.4685 6.062 23.6552 6.706C23.8465 7.35 23.9422 8.11067 23.9422 8.988ZM22.6472 8.988C22.6472 8.22267 22.5819 7.581 22.4512 7.063C22.3252 6.54033 22.1525 6.12033 21.9332 5.803C21.7185 5.48567 21.4689 5.25933 21.1842 5.124C20.8995 4.984 20.6032 4.914 20.2952 4.914C19.9872 4.914 19.6909 4.984 19.4062 5.124C19.1215 5.25933 18.8719 5.48567 18.6572 5.803C18.4425 6.12033 18.2699 6.54033 18.1392 7.063C18.0132 7.581 17.9502 8.22267 17.9502 8.988C17.9502 9.75333 18.0132 10.395 18.1392 10.913C18.2699 11.431 18.4425 11.8487 18.6572 12.166C18.8719 12.4833 19.1215 12.712 19.4062 12.852C19.6909 12.9873 19.9872 13.055 20.2952 13.055C20.6032 13.055 20.8995 12.9873 21.1842 12.852C21.4689 12.712 21.7185 12.4833 21.9332 12.166C22.1525 11.8487 22.3252 11.431 22.4512 10.913C22.5819 10.395 22.6472 9.75333 22.6472 8.988Z" fill="#858585"/>
<line x1="40" y1="9.5" x2="921" y2="9.5" stroke="#EAEAEA"/>
<path d="M0.91 84.685C0.975333 84.2277 1.10133 83.824 1.288 83.474C1.47467 83.1193 1.71033 82.823 1.995 82.585C2.28433 82.347 2.61333 82.1673 2.982 82.046C3.35533 81.92 3.75667 81.857 4.186 81.857C4.61067 81.857 5.00267 81.9177 5.362 82.039C5.72133 82.1603 6.02933 82.333 6.286 82.557C6.54733 82.781 6.75033 83.0517 6.895 83.369C7.03967 83.6863 7.112 84.0387 7.112 84.426C7.112 84.7433 7.07 85.028 6.986 85.28C6.90667 85.5273 6.79 85.7443 6.636 85.931C6.48667 86.1177 6.30467 86.2763 6.09 86.407C5.87533 86.5377 5.635 86.645 5.369 86.729C6.02233 86.897 6.51233 87.1863 6.839 87.597C7.17033 88.003 7.336 88.5117 7.336 89.123C7.336 89.585 7.24733 90.0003 7.07 90.369C6.89733 90.7377 6.65933 91.0527 6.356 91.314C6.05267 91.5707 5.698 91.769 5.292 91.909C4.89067 92.0443 4.459 92.112 3.997 92.112C3.465 92.112 3.01 92.0467 2.632 91.916C2.254 91.7807 1.93433 91.5963 1.673 91.363C1.41167 91.1297 1.197 90.8543 1.029 90.537C0.861 90.215 0.718667 89.8673 0.602 89.494L1.141 89.27C1.281 89.2093 1.41633 89.193 1.547 89.221C1.68233 89.249 1.78033 89.326 1.841 89.452C1.90167 89.5827 1.97633 89.739 2.065 89.921C2.15833 90.103 2.28433 90.278 2.443 90.446C2.60167 90.614 2.80233 90.7563 3.045 90.873C3.29233 90.9897 3.605 91.048 3.983 91.048C4.333 91.048 4.63867 90.992 4.9 90.88C5.166 90.7633 5.38533 90.614 5.558 90.432C5.73533 90.25 5.86833 90.047 5.957 89.823C6.04567 89.599 6.09 89.3773 6.09 89.158C6.09 88.8873 6.055 88.64 5.985 88.416C5.915 88.192 5.78433 87.9983 5.593 87.835C5.40167 87.6717 5.138 87.5433 4.802 87.45C4.47067 87.3567 4.04367 87.31 3.521 87.31V86.407C3.95033 86.4023 4.31433 86.3557 4.613 86.267C4.91633 86.1783 5.16133 86.057 5.348 85.903C5.53933 85.749 5.677 85.5647 5.761 85.35C5.84967 85.1353 5.894 84.8973 5.894 84.636C5.894 84.3467 5.84733 84.0947 5.754 83.88C5.66533 83.6653 5.54167 83.488 5.383 83.348C5.22433 83.208 5.03533 83.103 4.816 83.033C4.60133 82.963 4.368 82.928 4.116 82.928C3.864 82.928 3.62833 82.9653 3.409 83.04C3.19433 83.1147 3.003 83.2197 2.835 83.355C2.67167 83.4857 2.534 83.642 2.422 83.824C2.31 84.006 2.23067 84.2067 2.184 84.426C2.12333 84.5893 2.04633 84.699 1.953 84.755C1.86433 84.8063 1.73367 84.8203 1.561 84.797L0.91 84.685ZM15.8211 86.988C15.8211 87.8653 15.7254 88.626 15.5341 89.27C15.3474 89.9093 15.0908 90.439 14.7641 90.859C14.4374 91.279 14.0501 91.5917 13.6021 91.797C13.1588 92.0023 12.6828 92.105 12.1741 92.105C11.6608 92.105 11.1824 92.0023 10.7391 91.797C10.3004 91.5917 9.91776 91.279 9.59109 90.859C9.26443 90.439 9.00776 89.9093 8.82109 89.27C8.63443 88.626 8.54109 87.8653 8.54109 86.988C8.54109 86.1107 8.63443 85.35 8.82109 84.706C9.00776 84.062 9.26443 83.53 9.59109 83.11C9.91776 82.6853 10.3004 82.3703 10.7391 82.165C11.1824 81.9597 11.6608 81.857 12.1741 81.857C12.6828 81.857 13.1588 81.9597 13.6021 82.165C14.0501 82.3703 14.4374 82.6853 14.7641 83.11C15.0908 83.53 15.3474 84.062 15.5341 84.706C15.7254 85.35 15.8211 86.1107 15.8211 86.988ZM14.5261 86.988C14.5261 86.2227 14.4608 85.581 14.3301 85.063C14.2041 84.5403 14.0314 84.1203 13.8121 83.803C13.5974 83.4857 13.3478 83.2593 13.0631 83.124C12.7784 82.984 12.4821 82.914 12.1741 82.914C11.8661 82.914 11.5698 82.984 11.2851 83.124C11.0004 83.2593 10.7508 83.4857 10.5361 83.803C10.3214 84.1203 10.1488 84.5403 10.0181 85.063C9.89209 85.581 9.82909 86.2227 9.82909 86.988C9.82909 87.7533 9.89209 88.395 10.0181 88.913C10.1488 89.431 10.3214 89.8487 10.5361 90.166C10.7508 90.4833 11.0004 90.712 11.2851 90.852C11.5698 90.9873 11.8661 91.055 12.1741 91.055C12.4821 91.055 12.7784 90.9873 13.0631 90.852C13.3478 90.712 13.5974 90.4833 13.8121 90.166C14.0314 89.8487 14.2041 89.431 14.3301 88.913C14.4608 88.395 14.5261 87.7533 14.5261 86.988ZM23.9422 86.988C23.9422 87.8653 23.8465 88.626 23.6552 89.27C23.4685 89.9093 23.2119 90.439 22.8852 90.859C22.5585 91.279 22.1712 91.5917 21.7232 91.797C21.2799 92.0023 20.8039 92.105 20.2952 92.105C19.7819 92.105 19.3035 92.0023 18.8602 91.797C18.4215 91.5917 18.0389 91.279 17.7122 90.859C17.3855 90.439 17.1289 89.9093 16.9422 89.27C16.7555 88.626 16.6622 87.8653 16.6622 86.988C16.6622 86.1107 16.7555 85.35 16.9422 84.706C17.1289 84.062 17.3855 83.53 17.7122 83.11C18.0389 82.6853 18.4215 82.3703 18.8602 82.165C19.3035 81.9597 19.7819 81.857 20.2952 81.857C20.8039 81.857 21.2799 81.9597 21.7232 82.165C22.1712 82.3703 22.5585 82.6853 22.8852 83.11C23.2119 83.53 23.4685 84.062 23.6552 84.706C23.8465 85.35 23.9422 86.1107 23.9422 86.988ZM22.6472 86.988C22.6472 86.2227 22.5819 85.581 22.4512 85.063C22.3252 84.5403 22.1525 84.1203 21.9332 83.803C21.7185 83.4857 21.4689 83.2593 21.1842 83.124C20.8995 82.984 20.6032 82.914 20.2952 82.914C19.9872 82.914 19.6909 82.984 19.4062 83.124C19.1215 83.2593 18.8719 83.4857 18.6572 83.803C18.4425 84.1203 18.2699 84.5403 18.1392 85.063C18.0132 85.581 17.9502 86.2227 17.9502 86.988C17.9502 87.7533 18.0132 88.395 18.1392 88.913C18.2699 89.431 18.4425 89.8487 18.6572 90.166C18.8719 90.4833 19.1215 90.712 19.4062 90.852C19.6909 90.9873 19.9872 91.055 20.2952 91.055C20.6032 91.055 20.8995 90.9873 21.1842 90.852C21.4689 90.712 21.7185 90.4833 21.9332 90.166C22.1525 89.8487 22.3252 89.431 22.4512 88.913C22.5819 88.395 22.6472 87.7533 22.6472 86.988Z" fill="#858585"/>
<line x1="40" y1="87.5" x2="921" y2="87.5" stroke="#EAEAEA"/>
<path d="M5.11 49.381V45.244C5.11 45.1227 5.11467 44.9897 5.124 44.845C5.13333 44.7003 5.14733 44.5533 5.166 44.404L1.512 49.381H5.11ZM7.721 49.381V50.095C7.721 50.1697 7.69767 50.2327 7.651 50.284C7.609 50.3353 7.54133 50.361 7.448 50.361H6.202V53H5.11V50.361H0.658C0.564667 50.361 0.483 50.3353 0.413 50.284C0.347667 50.228 0.305667 50.1603 0.287 50.081L0.161 49.444L5.04 42.969H6.202V49.381H7.721ZM15.8211 47.988C15.8211 48.8653 15.7254 49.626 15.5341 50.27C15.3474 50.9093 15.0908 51.439 14.7641 51.859C14.4374 52.279 14.0501 52.5917 13.6021 52.797C13.1588 53.0023 12.6828 53.105 12.1741 53.105C11.6608 53.105 11.1824 53.0023 10.7391 52.797C10.3004 52.5917 9.91776 52.279 9.59109 51.859C9.26443 51.439 9.00776 50.9093 8.82109 50.27C8.63443 49.626 8.54109 48.8653 8.54109 47.988C8.54109 47.1107 8.63443 46.35 8.82109 45.706C9.00776 45.062 9.26443 44.53 9.59109 44.11C9.91776 43.6853 10.3004 43.3703 10.7391 43.165C11.1824 42.9597 11.6608 42.857 12.1741 42.857C12.6828 42.857 13.1588 42.9597 13.6021 43.165C14.0501 43.3703 14.4374 43.6853 14.7641 44.11C15.0908 44.53 15.3474 45.062 15.5341 45.706C15.7254 46.35 15.8211 47.1107 15.8211 47.988ZM14.5261 47.988C14.5261 47.2227 14.4608 46.581 14.3301 46.063C14.2041 45.5403 14.0314 45.1203 13.8121 44.803C13.5974 44.4857 13.3478 44.2593 13.0631 44.124C12.7784 43.984 12.4821 43.914 12.1741 43.914C11.8661 43.914 11.5698 43.984 11.2851 44.124C11.0004 44.2593 10.7508 44.4857 10.5361 44.803C10.3214 45.1203 10.1488 45.5403 10.0181 46.063C9.89209 46.581 9.82909 47.2227 9.82909 47.988C9.82909 48.7533 9.89209 49.395 10.0181 49.913C10.1488 50.431 10.3214 50.8487 10.5361 51.166C10.7508 51.4833 11.0004 51.712 11.2851 51.852C11.5698 51.9873 11.8661 52.055 12.1741 52.055C12.4821 52.055 12.7784 51.9873 13.0631 51.852C13.3478 51.712 13.5974 51.4833 13.8121 51.166C14.0314 50.8487 14.2041 50.431 14.3301 49.913C14.4608 49.395 14.5261 48.7533 14.5261 47.988ZM23.9422 47.988C23.9422 48.8653 23.8465 49.626 23.6552 50.27C23.4685 50.9093 23.2119 51.439 22.8852 51.859C22.5585 52.279 22.1712 52.5917 21.7232 52.797C21.2799 53.0023 20.8039 53.105 20.2952 53.105C19.7819 53.105 19.3035 53.0023 18.8602 52.797C18.4215 52.5917 18.0389 52.279 17.7122 51.859C17.3855 51.439 17.1289 50.9093 16.9422 50.27C16.7555 49.626 16.6622 48.8653 16.6622 47.988C16.6622 47.1107 16.7555 46.35 16.9422 45.706C17.1289 45.062 17.3855 44.53 17.7122 44.11C18.0389 43.6853 18.4215 43.3703 18.8602 43.165C19.3035 42.9597 19.7819 42.857 20.2952 42.857C20.8039 42.857 21.2799 42.9597 21.7232 43.165C22.1712 43.3703 22.5585 43.6853 22.8852 44.11C23.2119 44.53 23.4685 45.062 23.6552 45.706C23.8465 46.35 23.9422 47.1107 23.9422 47.988ZM22.6472 47.988C22.6472 47.2227 22.5819 46.581 22.4512 46.063C22.3252 45.5403 22.1525 45.1203 21.9332 44.803C21.7185 44.4857 21.4689 44.2593 21.1842 44.124C20.8995 43.984 20.6032 43.914 20.2952 43.914C19.9872 43.914 19.6909 43.984 19.4062 44.124C19.1215 44.2593 18.8719 44.4857 18.6572 44.803C18.4425 45.1203 18.2699 45.5403 18.1392 46.063C18.0132 46.581 17.9502 47.2227 17.9502 47.988C17.9502 48.7533 18.0132 49.395 18.1392 49.913C18.2699 50.431 18.4425 50.8487 18.6572 51.166C18.8719 51.4833 19.1215 51.712 19.4062 51.852C19.6909 51.9873 19.9872 52.055 20.2952 52.055C20.6032 52.055 20.8995 51.9873 21.1842 51.852C21.4689 51.712 21.7185 51.4833 21.9332 51.166C22.1525 50.8487 22.3252 50.431 22.4512 49.913C22.5819 49.395 22.6472 48.7533 22.6472 47.988Z" fill="#858585"/>
<line x1="40" y1="48.5" x2="921" y2="48.5" stroke="#EAEAEA"/>
<path d="M6.909 129.817C7.04433 129.817 7.15167 129.857 7.231 129.936C7.31033 130.015 7.35 130.118 7.35 130.244V131H0.658V130.573C0.658 130.484 0.676667 130.393 0.714 130.3C0.751333 130.207 0.809667 130.12 0.889 130.041L4.102 126.814C4.368 126.543 4.61067 126.284 4.83 126.037C5.04933 125.785 5.236 125.533 5.39 125.281C5.544 125.029 5.663 124.775 5.747 124.518C5.831 124.257 5.873 123.979 5.873 123.685C5.873 123.391 5.82633 123.134 5.733 122.915C5.63967 122.691 5.51133 122.507 5.348 122.362C5.18933 122.217 5.00033 122.11 4.781 122.04C4.56167 121.965 4.326 121.928 4.074 121.928C3.81733 121.928 3.58167 121.965 3.367 122.04C3.15233 122.115 2.961 122.22 2.793 122.355C2.62967 122.486 2.492 122.642 2.38 122.824C2.268 123.006 2.18867 123.207 2.142 123.426C2.086 123.589 2.009 123.699 1.911 123.755C1.81767 123.806 1.68467 123.82 1.512 123.797L0.861 123.685C0.926333 123.228 1.05233 122.824 1.239 122.474C1.43033 122.119 1.66833 121.823 1.953 121.585C2.24233 121.347 2.57133 121.167 2.94 121.046C3.30867 120.92 3.70767 120.857 4.137 120.857C4.56167 120.857 4.95833 120.92 5.327 121.046C5.69567 121.172 6.01533 121.356 6.286 121.599C6.55667 121.837 6.769 122.129 6.923 122.474C7.077 122.819 7.154 123.211 7.154 123.65C7.154 124.023 7.098 124.371 6.986 124.693C6.874 125.01 6.72233 125.314 6.531 125.603C6.33967 125.892 6.118 126.175 5.866 126.45C5.61867 126.725 5.355 127.003 5.075 127.283L2.429 129.985C2.61567 129.934 2.80467 129.894 2.996 129.866C3.18733 129.833 3.37167 129.817 3.549 129.817H6.909ZM15.8211 125.988C15.8211 126.865 15.7254 127.626 15.5341 128.27C15.3474 128.909 15.0908 129.439 14.7641 129.859C14.4374 130.279 14.0501 130.592 13.6021 130.797C13.1588 131.002 12.6828 131.105 12.1741 131.105C11.6608 131.105 11.1824 131.002 10.7391 130.797C10.3004 130.592 9.91776 130.279 9.59109 129.859C9.26443 129.439 9.00776 128.909 8.82109 128.27C8.63443 127.626 8.54109 126.865 8.54109 125.988C8.54109 125.111 8.63443 124.35 8.82109 123.706C9.00776 123.062 9.26443 122.53 9.59109 122.11C9.91776 121.685 10.3004 121.37 10.7391 121.165C11.1824 120.96 11.6608 120.857 12.1741 120.857C12.6828 120.857 13.1588 120.96 13.6021 121.165C14.0501 121.37 14.4374 121.685 14.7641 122.11C15.0908 122.53 15.3474 123.062 15.5341 123.706C15.7254 124.35 15.8211 125.111 15.8211 125.988ZM14.5261 125.988C14.5261 125.223 14.4608 124.581 14.3301 124.063C14.2041 123.54 14.0314 123.12 13.8121 122.803C13.5974 122.486 13.3478 122.259 13.0631 122.124C12.7784 121.984 12.4821 121.914 12.1741 121.914C11.8661 121.914 11.5698 121.984 11.2851 122.124C11.0004 122.259 10.7508 122.486 10.5361 122.803C10.3214 123.12 10.1488 123.54 10.0181 124.063C9.89209 124.581 9.82909 125.223 9.82909 125.988C9.82909 126.753 9.89209 127.395 10.0181 127.913C10.1488 128.431 10.3214 128.849 10.5361 129.166C10.7508 129.483 11.0004 129.712 11.2851 129.852C11.5698 129.987 11.8661 130.055 12.1741 130.055C12.4821 130.055 12.7784 129.987 13.0631 129.852C13.3478 129.712 13.5974 129.483 13.8121 129.166C14.0314 128.849 14.2041 128.431 14.3301 127.913C14.4608 127.395 14.5261 126.753 14.5261 125.988ZM23.9422 125.988C23.9422 126.865 23.8465 127.626 23.6552 128.27C23.4685 128.909 23.2119 129.439 22.8852 129.859C22.5585 130.279 22.1712 130.592 21.7232 130.797C21.2799 131.002 20.8039 131.105 20.2952 131.105C19.7819 131.105 19.3035 131.002 18.8602 130.797C18.4215 130.592 18.0389 130.279 17.7122 129.859C17.3855 129.439 17.1289 128.909 16.9422 128.27C16.7555 127.626 16.6622 126.865 16.6622 125.988C16.6622 125.111 16.7555 124.35 16.9422 123.706C17.1289 123.062 17.3855 122.53 17.7122 122.11C18.0389 121.685 18.4215 121.37 18.8602 121.165C19.3035 120.96 19.7819 120.857 20.2952 120.857C20.8039 120.857 21.2799 120.96 21.7232 121.165C22.1712 121.37 22.5585 121.685 22.8852 122.11C23.2119 122.53 23.4685 123.062 23.6552 123.706C23.8465 124.35 23.9422 125.111 23.9422 125.988ZM22.6472 125.988C22.6472 125.223 22.5819 124.581 22.4512 124.063C22.3252 123.54 22.1525 123.12 21.9332 122.803C21.7185 122.486 21.4689 122.259 21.1842 122.124C20.8995 121.984 20.6032 121.914 20.2952 121.914C19.9872 121.914 19.6909 121.984 19.4062 122.124C19.1215 122.259 18.8719 122.486 18.6572 122.803C18.4425 123.12 18.2699 123.54 18.1392 124.063C18.0132 124.581 17.9502 125.223 17.9502 125.988C17.9502 126.753 18.0132 127.395 18.1392 127.913C18.2699 128.431 18.4425 128.849 18.6572 129.166C18.8719 129.483 19.1215 129.712 19.4062 129.852C19.6909 129.987 19.9872 130.055 20.2952 130.055C20.6032 130.055 20.8995 129.987 21.1842 129.852C21.4689 129.712 21.7185 129.483 21.9332 129.166C22.1525 128.849 22.3252 128.431 22.4512 127.913C22.5819 127.395 22.6472 126.753 22.6472 125.988Z" fill="#858585"/>
<line x1="40" y1="126.5" x2="921" y2="126.5" stroke="#EAEAEA"/>
<path d="M7.126 169.048V170H1.75V169.048H3.899V162.209C3.899 162.004 3.906 161.796 3.92 161.586L2.135 163.119C2.07433 163.17 2.01367 163.203 1.953 163.217C1.89233 163.226 1.83633 163.226 1.785 163.217C1.73367 163.208 1.68467 163.189 1.638 163.161C1.596 163.133 1.56333 163.103 1.54 163.07L1.148 162.531L4.137 159.948H5.152V169.048H7.126ZM15.8211 164.988C15.8211 165.865 15.7254 166.626 15.5341 167.27C15.3474 167.909 15.0908 168.439 14.7641 168.859C14.4374 169.279 14.0501 169.592 13.6021 169.797C13.1588 170.002 12.6828 170.105 12.1741 170.105C11.6608 170.105 11.1824 170.002 10.7391 169.797C10.3004 169.592 9.91776 169.279 9.59109 168.859C9.26443 168.439 9.00776 167.909 8.82109 167.27C8.63443 166.626 8.54109 165.865 8.54109 164.988C8.54109 164.111 8.63443 163.35 8.82109 162.706C9.00776 162.062 9.26443 161.53 9.59109 161.11C9.91776 160.685 10.3004 160.37 10.7391 160.165C11.1824 159.96 11.6608 159.857 12.1741 159.857C12.6828 159.857 13.1588 159.96 13.6021 160.165C14.0501 160.37 14.4374 160.685 14.7641 161.11C15.0908 161.53 15.3474 162.062 15.5341 162.706C15.7254 163.35 15.8211 164.111 15.8211 164.988ZM14.5261 164.988C14.5261 164.223 14.4608 163.581 14.3301 163.063C14.2041 162.54 14.0314 162.12 13.8121 161.803C13.5974 161.486 13.3478 161.259 13.0631 161.124C12.7784 160.984 12.4821 160.914 12.1741 160.914C11.8661 160.914 11.5698 160.984 11.2851 161.124C11.0004 161.259 10.7508 161.486 10.5361 161.803C10.3214 162.12 10.1488 162.54 10.0181 163.063C9.89209 163.581 9.82909 164.223 9.82909 164.988C9.82909 165.753 9.89209 166.395 10.0181 166.913C10.1488 167.431 10.3214 167.849 10.5361 168.166C10.7508 168.483 11.0004 168.712 11.2851 168.852C11.5698 168.987 11.8661 169.055 12.1741 169.055C12.4821 169.055 12.7784 168.987 13.0631 168.852C13.3478 168.712 13.5974 168.483 13.8121 168.166C14.0314 167.849 14.2041 167.431 14.3301 166.913C14.4608 166.395 14.5261 165.753 14.5261 164.988ZM23.9422 164.988C23.9422 165.865 23.8465 166.626 23.6552 167.27C23.4685 167.909 23.2119 168.439 22.8852 168.859C22.5585 169.279 22.1712 169.592 21.7232 169.797C21.2799 170.002 20.8039 170.105 20.2952 170.105C19.7819 170.105 19.3035 170.002 18.8602 169.797C18.4215 169.592 18.0389 169.279 17.7122 168.859C17.3855 168.439 17.1289 167.909 16.9422 167.27C16.7555 166.626 16.6622 165.865 16.6622 164.988C16.6622 164.111 16.7555 163.35 16.9422 162.706C17.1289 162.062 17.3855 161.53 17.7122 161.11C18.0389 160.685 18.4215 160.37 18.8602 160.165C19.3035 159.96 19.7819 159.857 20.2952 159.857C20.8039 159.857 21.2799 159.96 21.7232 160.165C22.1712 160.37 22.5585 160.685 22.8852 161.11C23.2119 161.53 23.4685 162.062 23.6552 162.706C23.8465 163.35 23.9422 164.111 23.9422 164.988ZM22.6472 164.988C22.6472 164.223 22.5819 163.581 22.4512 163.063C22.3252 162.54 22.1525 162.12 21.9332 161.803C21.7185 161.486 21.4689 161.259 21.1842 161.124C20.8995 160.984 20.6032 160.914 20.2952 160.914C19.9872 160.914 19.6909 160.984 19.4062 161.124C19.1215 161.259 18.8719 161.486 18.6572 161.803C18.4425 162.12 18.2699 162.54 18.1392 163.063C18.0132 163.581 17.9502 164.223 17.9502 164.988C17.9502 165.753 18.0132 166.395 18.1392 166.913C18.2699 167.431 18.4425 167.849 18.6572 168.166C18.8719 168.483 19.1215 168.712 19.4062 168.852C19.6909 168.987 19.9872 169.055 20.2952 169.055C20.6032 169.055 20.8995 168.987 21.1842 168.852C21.4689 168.712 21.7185 168.483 21.9332 168.166C22.1525 167.849 22.3252 167.431 22.4512 166.913C22.5819 166.395 22.6472 165.753 22.6472 164.988Z" fill="#858585"/>
<line x1="40" y1="165.5" x2="921" y2="165.5" stroke="#EAEAEA"/>
<path d="M24.9279 203.988C24.9279 204.865 24.8323 205.626 24.6409 206.27C24.4543 206.909 24.1976 207.439 23.8709 207.859C23.5443 208.279 23.1569 208.592 22.7089 208.797C22.2656 209.002 21.7896 209.105 21.2809 209.105C20.7676 209.105 20.2893 209.002 19.8459 208.797C19.4073 208.592 19.0246 208.279 18.6979 207.859C18.3713 207.439 18.1146 206.909 17.9279 206.27C17.7413 205.626 17.6479 204.865 17.6479 203.988C17.6479 203.111 17.7413 202.35 17.9279 201.706C18.1146 201.062 18.3713 200.53 18.6979 200.11C19.0246 199.685 19.4073 199.37 19.8459 199.165C20.2893 198.96 20.7676 198.857 21.2809 198.857C21.7896 198.857 22.2656 198.96 22.7089 199.165C23.1569 199.37 23.5443 199.685 23.8709 200.11C24.1976 200.53 24.4543 201.062 24.6409 201.706C24.8323 202.35 24.9279 203.111 24.9279 203.988ZM23.6329 203.988C23.6329 203.223 23.5676 202.581 23.4369 202.063C23.3109 201.54 23.1383 201.12 22.9189 200.803C22.7043 200.486 22.4546 200.259 22.1699 200.124C21.8853 199.984 21.5889 199.914 21.2809 199.914C20.9729 199.914 20.6766 199.984 20.3919 200.124C20.1073 200.259 19.8576 200.486 19.6429 200.803C19.4283 201.12 19.2556 201.54 19.1249 202.063C18.9989 202.581 18.9359 203.223 18.9359 203.988C18.9359 204.753 18.9989 205.395 19.1249 205.913C19.2556 206.431 19.4283 206.849 19.6429 207.166C19.8576 207.483 20.1073 207.712 20.3919 207.852C20.6766 207.987 20.9729 208.055 21.2809 208.055C21.5889 208.055 21.8853 207.987 22.1699 207.852C22.4546 207.712 22.7043 207.483 22.9189 207.166C23.1383 206.849 23.3109 206.431 23.4369 205.913C23.5676 205.395 23.6329 204.753 23.6329 203.988Z" fill="#858585"/>
<line x1="40" y1="204.5" x2="921" y2="204.5" stroke="#EAEAEA"/>
<path d="M153.28 213.969L150.151 224H148.933L146.392 216.349C146.369 216.274 146.345 216.195 146.322 216.111C146.303 216.027 146.282 215.938 146.259 215.845C146.236 215.938 146.212 216.027 146.189 216.111C146.166 216.195 146.142 216.274 146.119 216.349L143.564 224H142.346L139.217 213.969H140.344C140.465 213.969 140.566 213.999 140.645 214.06C140.729 214.121 140.783 214.198 140.806 214.291L142.878 221.263C142.911 221.389 142.941 221.524 142.969 221.669C143.002 221.814 143.032 221.968 143.06 222.131C143.093 221.968 143.125 221.814 143.158 221.669C143.195 221.52 143.235 221.384 143.277 221.263L145.636 214.291C145.664 214.212 145.718 214.139 145.797 214.074C145.881 214.004 145.981 213.969 146.098 213.969H146.49C146.611 213.969 146.709 213.999 146.784 214.06C146.859 214.121 146.915 214.198 146.952 214.291L149.304 221.263C149.346 221.384 149.383 221.515 149.416 221.655C149.453 221.795 149.488 221.942 149.521 222.096C149.544 221.942 149.57 221.795 149.598 221.655C149.626 221.515 149.656 221.384 149.689 221.263L151.768 214.291C151.791 214.207 151.843 214.132 151.922 214.067C152.006 214.002 152.106 213.969 152.223 213.969H153.28ZM158.432 219.681C158.432 219.392 158.39 219.128 158.306 218.89C158.227 218.647 158.108 218.44 157.949 218.267C157.795 218.09 157.606 217.954 157.382 217.861C157.158 217.763 156.904 217.714 156.619 217.714C156.022 217.714 155.548 217.889 155.198 218.239C154.853 218.584 154.638 219.065 154.554 219.681H158.432ZM159.44 223.006C159.286 223.193 159.102 223.356 158.887 223.496C158.673 223.631 158.442 223.743 158.194 223.832C157.952 223.921 157.7 223.986 157.438 224.028C157.177 224.075 156.918 224.098 156.661 224.098C156.171 224.098 155.719 224.016 155.303 223.853C154.893 223.685 154.536 223.442 154.232 223.125C153.934 222.803 153.7 222.406 153.532 221.935C153.364 221.464 153.28 220.922 153.28 220.311C153.28 219.816 153.355 219.354 153.504 218.925C153.658 218.496 153.878 218.125 154.162 217.812C154.447 217.495 154.795 217.247 155.205 217.07C155.616 216.888 156.078 216.797 156.591 216.797C157.016 216.797 157.408 216.869 157.767 217.014C158.131 217.154 158.444 217.359 158.705 217.63C158.971 217.896 159.179 218.227 159.328 218.624C159.478 219.016 159.552 219.464 159.552 219.968C159.552 220.164 159.531 220.295 159.489 220.36C159.447 220.425 159.368 220.458 159.251 220.458H154.512C154.526 220.906 154.587 221.296 154.694 221.627C154.806 221.958 154.96 222.236 155.156 222.46C155.352 222.679 155.586 222.845 155.856 222.957C156.127 223.064 156.43 223.118 156.766 223.118C157.079 223.118 157.347 223.083 157.571 223.013C157.8 222.938 157.996 222.859 158.159 222.775C158.323 222.691 158.458 222.614 158.565 222.544C158.677 222.469 158.773 222.432 158.852 222.432C158.955 222.432 159.034 222.472 159.09 222.551L159.44 223.006ZM165.829 219.681C165.829 219.392 165.787 219.128 165.703 218.89C165.623 218.647 165.504 218.44 165.346 218.267C165.192 218.09 165.003 217.954 164.779 217.861C164.555 217.763 164.3 217.714 164.016 217.714C163.418 217.714 162.945 217.889 162.595 218.239C162.249 218.584 162.035 219.065 161.951 219.681H165.829ZM166.837 223.006C166.683 223.193 166.498 223.356 166.284 223.496C166.069 223.631 165.838 223.743 165.591 223.832C165.348 223.921 165.096 223.986 164.835 224.028C164.573 224.075 164.314 224.098 164.058 224.098C163.568 224.098 163.115 224.016 162.7 223.853C162.289 223.685 161.932 223.442 161.629 223.125C161.33 222.803 161.097 222.406 160.929 221.935C160.761 221.464 160.677 220.922 160.677 220.311C160.677 219.816 160.751 219.354 160.901 218.925C161.055 218.496 161.274 218.125 161.559 217.812C161.843 217.495 162.191 217.247 162.602 217.07C163.012 216.888 163.474 216.797 163.988 216.797C164.412 216.797 164.804 216.869 165.164 217.014C165.528 217.154 165.84 217.359 166.102 217.63C166.368 217.896 166.575 218.227 166.725 218.624C166.874 219.016 166.949 219.464 166.949 219.968C166.949 220.164 166.928 220.295 166.886 220.36C166.844 220.425 166.764 220.458 166.648 220.458H161.909C161.923 220.906 161.983 221.296 162.091 221.627C162.203 221.958 162.357 222.236 162.553 222.46C162.749 222.679 162.982 222.845 163.253 222.957C163.523 223.064 163.827 223.118 164.163 223.118C164.475 223.118 164.744 223.083 164.968 223.013C165.196 222.938 165.392 222.859 165.556 222.775C165.719 222.691 165.854 222.614 165.962 222.544C166.074 222.469 166.169 222.432 166.249 222.432C166.351 222.432 166.431 222.472 166.487 222.551L166.837 223.006ZM169.732 213.689V219.758H170.054C170.148 219.758 170.225 219.746 170.285 219.723C170.351 219.695 170.418 219.641 170.488 219.562L172.728 217.161C172.794 217.082 172.861 217.021 172.931 216.979C173.006 216.932 173.104 216.909 173.225 216.909H174.352L171.741 219.688C171.615 219.847 171.48 219.97 171.335 220.059C171.419 220.115 171.494 220.18 171.559 220.255C171.629 220.325 171.695 220.407 171.755 220.5L174.527 224H173.414C173.307 224 173.214 223.984 173.134 223.951C173.06 223.914 172.994 223.848 172.938 223.755L170.607 220.85C170.537 220.752 170.467 220.689 170.397 220.661C170.332 220.628 170.229 220.612 170.089 220.612H169.732V224H168.479V213.689H169.732ZM185.31 223.048V224H179.934V223.048H182.083V216.209C182.083 216.004 182.09 215.796 182.104 215.586L180.319 217.119C180.258 217.17 180.197 217.203 180.137 217.217C180.076 217.226 180.02 217.226 179.969 217.217C179.917 217.208 179.868 217.189 179.822 217.161C179.78 217.133 179.747 217.103 179.724 217.07L179.332 216.531L182.321 213.948H183.336V223.048H185.31Z" fill="#858585"/>
<path d="M349.097 225H347.948L345.932 218.308C345.836 218.011 345.729 217.638 345.61 217.187C345.492 216.735 345.43 216.464 345.426 216.373C345.326 216.975 345.166 217.633 344.947 218.349L342.992 225H341.844L339.185 215.006H340.415L341.994 221.179C342.213 222.045 342.372 222.828 342.473 223.53C342.596 222.696 342.778 221.881 343.02 221.083L344.811 215.006H346.041L347.921 221.138C348.14 221.844 348.324 222.642 348.475 223.53C348.561 222.883 348.725 222.095 348.967 221.165L350.539 215.006H351.77L349.097 225ZM356.329 225.137C355.222 225.137 354.347 224.799 353.704 224.125C353.066 223.451 352.747 222.514 352.747 221.315C352.747 220.108 353.043 219.148 353.636 218.438C354.233 217.727 355.033 217.371 356.035 217.371C356.974 217.371 357.717 217.681 358.264 218.301C358.811 218.916 359.084 219.729 359.084 220.741V221.459H353.923C353.946 222.339 354.167 223.006 354.586 223.462C355.01 223.918 355.604 224.146 356.37 224.146C357.177 224.146 357.974 223.977 358.763 223.64V224.651C358.362 224.825 357.981 224.948 357.621 225.021C357.266 225.098 356.835 225.137 356.329 225.137ZM356.021 218.321C355.42 218.321 354.939 218.517 354.579 218.909C354.224 219.301 354.014 219.843 353.95 220.536H357.867C357.867 219.821 357.708 219.274 357.389 218.896C357.07 218.513 356.614 218.321 356.021 218.321ZM364.19 225.137C363.083 225.137 362.208 224.799 361.565 224.125C360.927 223.451 360.608 222.514 360.608 221.315C360.608 220.108 360.905 219.148 361.497 218.438C362.094 217.727 362.894 217.371 363.896 217.371C364.835 217.371 365.578 217.681 366.125 218.301C366.672 218.916 366.945 219.729 366.945 220.741V221.459H361.784C361.807 222.339 362.028 223.006 362.447 223.462C362.871 223.918 363.466 224.146 364.231 224.146C365.038 224.146 365.836 223.977 366.624 223.64V224.651C366.223 224.825 365.842 224.948 365.482 225.021C365.127 225.098 364.696 225.137 364.19 225.137ZM363.883 218.321C363.281 218.321 362.8 218.517 362.44 218.909C362.085 219.301 361.875 219.843 361.812 220.536H365.729C365.729 219.821 365.569 219.274 365.25 218.896C364.931 218.513 364.475 218.321 363.883 218.321ZM370.008 221.165C370.204 220.887 370.502 220.522 370.903 220.071L373.323 217.508H374.67L371.635 220.7L374.882 225H373.508L370.862 221.459L370.008 222.197V225H368.887V214.363H370.008V220.003C370.008 220.254 369.99 220.641 369.953 221.165H370.008ZM385.929 225H379.359V224.022L381.991 221.377C382.793 220.566 383.322 219.987 383.577 219.641C383.832 219.294 384.024 218.957 384.151 218.629C384.279 218.301 384.343 217.948 384.343 217.569C384.343 217.036 384.181 216.615 383.857 216.305C383.534 215.99 383.085 215.833 382.511 215.833C382.096 215.833 381.702 215.901 381.328 216.038C380.959 216.175 380.547 216.423 380.091 216.783L379.489 216.011C380.41 215.245 381.412 214.862 382.497 214.862C383.436 214.862 384.172 215.104 384.705 215.587C385.238 216.065 385.505 216.71 385.505 217.521C385.505 218.155 385.327 218.782 384.972 219.401C384.616 220.021 383.951 220.805 382.976 221.753L380.788 223.893V223.947H385.929V225Z" fill="#858585"/>
<path d="M549.097 225H547.948L545.932 218.308C545.836 218.011 545.729 217.638 545.61 217.187C545.492 216.735 545.43 216.464 545.426 216.373C545.326 216.975 545.166 217.633 544.947 218.349L542.992 225H541.844L539.185 215.006H540.415L541.994 221.179C542.213 222.045 542.372 222.828 542.473 223.53C542.596 222.696 542.778 221.881 543.02 221.083L544.811 215.006H546.041L547.921 221.138C548.14 221.844 548.324 222.642 548.475 223.53C548.561 222.883 548.725 222.095 548.967 221.165L550.539 215.006H551.77L549.097 225ZM556.329 225.137C555.222 225.137 554.347 224.799 553.704 224.125C553.066 223.451 552.747 222.514 552.747 221.315C552.747 220.108 553.043 219.148 553.636 218.438C554.233 217.727 555.033 217.371 556.035 217.371C556.974 217.371 557.717 217.681 558.264 218.301C558.811 218.916 559.084 219.729 559.084 220.741V221.459H553.923C553.946 222.339 554.167 223.006 554.586 223.462C555.01 223.918 555.604 224.146 556.37 224.146C557.177 224.146 557.974 223.977 558.763 223.64V224.651C558.362 224.825 557.981 224.948 557.621 225.021C557.266 225.098 556.835 225.137 556.329 225.137ZM556.021 218.321C555.42 218.321 554.939 218.517 554.579 218.909C554.224 219.301 554.014 219.843 553.95 220.536H557.867C557.867 219.821 557.708 219.274 557.389 218.896C557.07 218.513 556.614 218.321 556.021 218.321ZM564.19 225.137C563.083 225.137 562.208 224.799 561.565 224.125C560.927 223.451 560.608 222.514 560.608 221.315C560.608 220.108 560.905 219.148 561.497 218.438C562.094 217.727 562.894 217.371 563.896 217.371C564.835 217.371 565.578 217.681 566.125 218.301C566.672 218.916 566.945 219.729 566.945 220.741V221.459H561.784C561.807 222.339 562.028 223.006 562.447 223.462C562.871 223.918 563.466 224.146 564.231 224.146C565.038 224.146 565.836 223.977 566.624 223.64V224.651C566.223 224.825 565.842 224.948 565.482 225.021C565.127 225.098 564.696 225.137 564.19 225.137ZM563.883 218.321C563.281 218.321 562.8 218.517 562.44 218.909C562.085 219.301 561.875 219.843 561.812 220.536H565.729C565.729 219.821 565.569 219.274 565.25 218.896C564.931 218.513 564.475 218.321 563.883 218.321ZM570.008 221.165C570.204 220.887 570.502 220.522 570.903 220.071L573.323 217.508H574.67L571.635 220.7L574.882 225H573.508L570.862 221.459L570.008 222.197V225H568.887V214.363H570.008V220.003C570.008 220.254 569.99 220.641 569.953 221.165H570.008ZM585.553 217.357C585.553 217.995 585.373 218.517 585.013 218.923C584.657 219.328 584.151 219.6 583.495 219.736V219.791C584.297 219.891 584.892 220.146 585.279 220.557C585.667 220.967 585.86 221.505 585.86 222.17C585.86 223.122 585.53 223.856 584.869 224.371C584.208 224.882 583.27 225.137 582.053 225.137C581.524 225.137 581.039 225.096 580.597 225.014C580.159 224.936 579.733 224.797 579.318 224.597V223.517C579.751 223.731 580.212 223.895 580.699 224.009C581.191 224.118 581.656 224.173 582.094 224.173C583.821 224.173 584.685 223.496 584.685 222.143C584.685 220.93 583.732 220.324 581.827 220.324H580.843V219.347H581.841C582.62 219.347 583.238 219.176 583.693 218.834C584.149 218.488 584.377 218.009 584.377 217.398C584.377 216.911 584.208 216.528 583.871 216.25C583.538 215.972 583.085 215.833 582.511 215.833C582.073 215.833 581.661 215.892 581.273 216.011C580.886 216.129 580.444 216.348 579.947 216.667L579.373 215.901C579.783 215.578 580.255 215.325 580.788 215.143C581.326 214.956 581.891 214.862 582.483 214.862C583.454 214.862 584.208 215.086 584.746 215.532C585.284 215.974 585.553 216.583 585.553 217.357Z" fill="#858585"/>
<path d="M749.097 225H747.948L745.932 218.308C745.836 218.011 745.729 217.638 745.61 217.187C745.492 216.735 745.43 216.464 745.426 216.373C745.326 216.975 745.166 217.633 744.947 218.349L742.992 225H741.844L739.185 215.006H740.415L741.994 221.179C742.213 222.045 742.372 222.828 742.473 223.53C742.596 222.696 742.778 221.881 743.02 221.083L744.811 215.006H746.041L747.921 221.138C748.14 221.844 748.324 222.642 748.475 223.53C748.561 222.883 748.725 222.095 748.967 221.165L750.539 215.006H751.77L749.097 225ZM756.329 225.137C755.222 225.137 754.347 224.799 753.704 224.125C753.066 223.451 752.747 222.514 752.747 221.315C752.747 220.108 753.043 219.148 753.636 218.438C754.233 217.727 755.033 217.371 756.035 217.371C756.974 217.371 757.717 217.681 758.264 218.301C758.811 218.916 759.084 219.729 759.084 220.741V221.459H753.923C753.946 222.339 754.167 223.006 754.586 223.462C755.01 223.918 755.604 224.146 756.37 224.146C757.177 224.146 757.974 223.977 758.763 223.64V224.651C758.362 224.825 757.981 224.948 757.621 225.021C757.266 225.098 756.835 225.137 756.329 225.137ZM756.021 218.321C755.42 218.321 754.939 218.517 754.579 218.909C754.224 219.301 754.014 219.843 753.95 220.536H757.867C757.867 219.821 757.708 219.274 757.389 218.896C757.07 218.513 756.614 218.321 756.021 218.321ZM764.19 225.137C763.083 225.137 762.208 224.799 761.565 224.125C760.927 223.451 760.608 222.514 760.608 221.315C760.608 220.108 760.905 219.148 761.497 218.438C762.094 217.727 762.894 217.371 763.896 217.371C764.835 217.371 765.578 217.681 766.125 218.301C766.672 218.916 766.945 219.729 766.945 220.741V221.459H761.784C761.807 222.339 762.028 223.006 762.447 223.462C762.871 223.918 763.466 224.146 764.231 224.146C765.038 224.146 765.836 223.977 766.624 223.64V224.651C766.223 224.825 765.842 224.948 765.482 225.021C765.127 225.098 764.696 225.137 764.19 225.137ZM763.883 218.321C763.281 218.321 762.8 218.517 762.44 218.909C762.085 219.301 761.875 219.843 761.812 220.536H765.729C765.729 219.821 765.569 219.274 765.25 218.896C764.931 218.513 764.475 218.321 763.883 218.321ZM770.008 221.165C770.204 220.887 770.502 220.522 770.903 220.071L773.323 217.508H774.67L771.635 220.7L774.882 225H773.508L770.862 221.459L770.008 222.197V225H768.887V214.363H770.008V220.003C770.008 220.254 769.99 220.641 769.953 221.165H770.008ZM786.4 222.703H784.917V225H783.83V222.703H778.97V221.712L783.714 214.951H784.917V221.671H786.4V222.703ZM783.83 221.671V218.349C783.83 217.697 783.853 216.961 783.898 216.141H783.844C783.625 216.578 783.42 216.94 783.229 217.228L780.104 221.671H783.83Z" fill="#858585"/>
<path d="M918 31.5C918 31.5 816 118 745.5 118C684 118 627 87.5 565.5 87.5C504 87.5 406.5 125 339.5 125C272.5 125 188.5 52.0001 134 52.0001C86.5 52.0001 40.5 126.5 40.5 126.5" stroke="#E9A0A0" stroke-width="3" stroke-linecap="round" stroke-linejoin="round"/>
<path d="M917 105C917 105 863.5 135.5 787.5 135.5C704 135.5 665 31 582 31C499 31 446 147.5 367 147.5C288 147.5 256.5 41 193 41C118.5 41 40.5 163 40.5 163" stroke="#9BDD7C" stroke-width="3" stroke-linecap="round" stroke-linejoin="round"/>
</svg>
